<?xml version="1.0" encoding="utf-8"?>
<!-- Generator: Adobe Illustrator 15.1.0, SVG Export Plug-In . SVG Version: 6.00 Build 0)  -->
<!DOCTYPE svg PUBLIC "-//W3C//DTD SVG 1.1//EN" "http://www.w3.org/Graphics/SVG/1.1/DTD/svg11.dtd">
<svg version="1.1" xmlns="http://www.w3.org/2000/svg" xmlns:xlink="http://www.w3.org/1999/xlink" x="0px" y="0px" width="1536px"
	 height="2048px" viewBox="0 0 1536 2048" enable-background="new 0 0 1536 2048" xml:space="preserve">
<g id="Layer_7">
	<rect fill="#FFFFFF" width="1536" height="2048"/>
</g>
<g id="Layer_5">
	<rect x="300.148" y="747.367" fill="#CDC0C4" width="615.888" height="938.395"/>
	<rect x="663.132" y="46.901" fill="#8197A9" width="284.986" height="206.99"/>
	<rect x="955.117" y="46.901" fill="#8197A9" width="269.986" height="700.465"/>
	<rect x="989.864" y="1347.338" fill="#8197A9" width="236.988" height="578.973"/>
	<rect x="526.638" y="1659.322" fill="#8197A9" width="169.491" height="266.988"/>
	<rect x="663.132" y="251.891" fill="#CB6C4D" width="291.985" height="505.477"/>
	<rect x="694.629" y="890.861" fill="#CB6C4D" width="134.994" height="67.497"/>
	<rect x="687.129" y="966.362" fill="#CB6C4D" width="304.485" height="959.949"/>
	<polygon fill="#CB6C4D" points="688.757,1908.626 775.046,2004 930.048,2004 995.563,1916.709 	"/>
	<rect x="903.118" y="759.368" fill="#DDA966" width="321.985" height="194.993"/>
	<rect x="828.122" y="849.865" fill="#DDA966" width="101.994" height="104.496"/>
	<rect x="300.148" y="747.367" fill="#DDA966" width="233.989" height="200.994"/>
	<rect x="301.647" y="1597.83" fill="#DDA966" width="218.989" height="328.48"/>
	<rect x="991.614" y="966.362" fill="#67495B" width="233.489" height="368.978"/>
	<rect x="303.647" y="1000.856" fill="#67495B" width="269.986" height="451.482"/>
	<rect x="498.639" y="1129.855" fill="#CB6C4D" width="74.997" height="197.99"/>
	<rect x="305.517" y="1451.596" fill="#828463" width="174.5" height="57.664"/>
	<rect x="307.452" y="944.689" fill="#828463" width="174.5" height="57.664"/>
</g>
<g id="Layer_2">
	<rect x="650.597" y="32.322" fill="#E4E7DC" width="22.403" height="726.103"/>
	<rect x="686.756" y="889.03" fill="#E4E7DC" width="22.403" height="367.553"/>
	<rect x="991.947" y="1042.354" fill="#E4E7DC" width="22.404" height="214.229"/>
	<rect x="819.732" y="845.605" fill="#E4E7DC" width="22.403" height="102.774"/>
	<rect x="945.879" y="617.616" fill="#E4E7DC" width="22.403" height="123.171"/>
	<rect x="945.861" y="341.117" fill="#E4E7DC" width="22.403" height="137.006"/>
	<rect x="943.861" y="42.141" fill="#E4E7DC" width="22.403" height="228.992"/>
	<rect x="991.947" y="1816.521" fill="#E4E7DC" width="22.404" height="123.171"/>
	<rect x="991.947" y="1430.986" fill="#E4E7DC" width="22.404" height="224.888"/>
	<rect x="686.865" y="1430.986" fill="#E4E7DC" width="22.403" height="374.568"/>
	<rect x="516.642" y="1598.156" fill="#E4E7DC" width="22.403" height="330.717"/>
	<rect x="489.905" y="1116.002" fill="#E4E7DC" width="19.761" height="225.258"/>
	<rect x="519.12" y="847.549" fill="#E4E7DC" width="16.546" height="103.233"/>
	<rect x="478.12" y="946.782" fill="#E4E7DC" width="16.546" height="55.478"/>
	<rect x="561.787" y="1084.334" fill="#E4E7DC" width="16.546" height="57.926"/>
	<rect x="561.787" y="1317.108" fill="#E4E7DC" width="16.546" height="57.926"/>
	<rect x="477.835" y="1451.465" fill="#E4E7DC" width="16.546" height="57.926"/>
	<rect x="686.756" y="889.03" fill="#E4E7DC" width="47.744" height="14.97"/>
	<rect x="795.861" y="889.508" fill="#E4E7DC" width="37.139" height="14.97"/>
	<rect x="378.475" y="1488.774" fill="#E4E7DC" stroke="#939598" width="28.583" height="6.477"/>
	<ellipse fill="#E4E7DC" stroke="#939598" cx="392.684" cy="1473.023" rx="18.458" ry="12.605"/>
	<polygon fill="#E4E7DC" stroke="#939598" points="394.767,1495.251 389.761,1495.251 392.264,1473.251 	"/>
	<rect x="329.475" y="1489.191" fill="#E4E7DC" stroke="#939598" width="28.583" height="6.477"/>
	<ellipse fill="#E4E7DC" stroke="#939598" cx="343.684" cy="1473.44" rx="18.458" ry="12.605"/>
	<polygon fill="#E4E7DC" stroke="#939598" points="345.767,1495.668 340.761,1495.668 343.264,1473.668 	"/>
	<rect x="427.017" y="1489.191" fill="#E4E7DC" stroke="#939598" width="28.583" height="6.477"/>
	<ellipse fill="#E4E7DC" stroke="#939598" cx="441.226" cy="1473.44" rx="18.458" ry="12.605"/>
	<polygon fill="#E4E7DC" stroke="#939598" points="443.309,1495.668 438.303,1495.668 440.806,1473.668 	"/>
	<rect x="380.099" y="953.312" fill="#E4E7DC" stroke="#939598" width="28.583" height="6.477"/>
	<ellipse fill="#E4E7DC" stroke="#939598" cx="394.473" cy="975.54" rx="18.458" ry="12.605"/>
	<polygon fill="#E4E7DC" stroke="#939598" points="392.39,953.312 397.396,953.312 394.893,975.312 	"/>
	<rect x="429.099" y="952.896" fill="#E4E7DC" stroke="#939598" width="28.583" height="6.477"/>
	<ellipse fill="#E4E7DC" stroke="#939598" cx="443.473" cy="975.123" rx="18.458" ry="12.605"/>
	<polygon fill="#E4E7DC" stroke="#939598" points="441.39,952.896 446.396,952.896 443.893,974.896 	"/>
	<rect x="331.557" y="952.896" fill="#E4E7DC" stroke="#939598" width="28.583" height="6.477"/>
	<ellipse fill="#E4E7DC" stroke="#939598" cx="345.931" cy="975.123" rx="18.458" ry="12.605"/>
	<polygon fill="#E4E7DC" stroke="#939598" points="343.848,952.896 348.854,952.896 346.351,974.896 	"/>
</g>
<g id="Layer_1">
</g>
<g id="Layer_3">
	<rect x="653.597" y="32.322" fill="#E4E7DC" width="586.471" height="19.637"/>
	<rect x="743.965" y="739.787" fill="#E4E7DC" width="501.228" height="19.637"/>
	<rect x="957.081" y="544.974" fill="#E4E7DC" width="288.111" height="19.637"/>
	<rect x="957.081" y="348.983" fill="#E4E7DC" width="288.111" height="19.637"/>
	<rect x="650.597" y="242.493" fill="#E4E7DC" width="225.124" height="19.637"/>
	<rect x="697.958" y="946.782" fill="#E4E7DC" width="536.61" height="19.637"/>
	<rect x="686.457" y="1332.441" fill="#E4E7DC" width="539.612" height="19.637"/>
	<rect x="997.948" y="1529.569" fill="#E4E7DC" width="238.121" height="19.637"/>
	<rect x="991.947" y="1718.066" fill="#E4E7DC" width="241.122" height="19.637"/>
	<rect x="994.948" y="1920.056" fill="#E4E7DC" width="238.121" height="19.637"/>
	<rect x="776" y="1999.452" fill="#E4E7DC" width="144.5" height="21.942"/>
	<rect x="292.617" y="1918" fill="#E4E7DC" width="405.45" height="21.692"/>
	<rect x="528.844" y="1650.923" fill="#E4E7DC" width="169.223" height="19.637"/>
	<rect x="308.452" y="1496.831" fill="#E4E7DC" width="265.547" height="22.166"/>
	<rect x="485.108" y="1451.465" fill="#E4E7DC" width="88.892" height="16.633"/>
	<rect x="292.617" y="1230.944" fill="#E4E7DC" width="208.49" height="19.637"/>
	<rect x="307.452" y="931.146" fill="#E4E7DC" width="220.392" height="19.637"/>
	<rect x="493.107" y="1327.002" fill="#E4E7DC" width="82.894" height="14.258"/>
	<rect x="491.107" y="1219.002" fill="#E4E7DC" width="82.894" height="14.258"/>
	<rect x="491.107" y="1116.002" fill="#E4E7DC" width="82.894" height="14.258"/>
	<rect x="484" y="988.002" fill="#E4E7DC" width="90.001" height="14.258"/>
	<rect x="288.119" y="738.788" fill="#E4E7DC" width="384.548" height="19.637"/>
	<polygon fill="#E4E7DC" points="698.066,1939.692 776,2021.395 776,1999.452 698.066,1918 	"/>
	<polygon fill="#E4E7DC" points="918.5,1999.452 993.334,1920.056 1001.649,1939.693 920.579,2021.395 	"/>
	<rect x="288.415" y="755.639" fill="#E4E7DC" width="22.403" height="1184.054"/>
	<rect x="1222.865" y="32.322" fill="#E4E7DC" width="22.403" height="1907.371"/>
</g>
<g id="Layer_6">
	<rect x="734.123" y="132.88" fill="none" width="264.026" height="111.011"/>
	<text transform="matrix(1 0 0 1 734.123 163.0122)" fill="#FFFFFF" font-family="'MyriadPro-Regular'" font-size="36">Office 419</text>
	<rect x="1023.352" y="132.88" fill="none" width="264.026" height="111.011"/>
	<text transform="matrix(1 0 0 1 1023.3516 163.0122)" fill="#FFFFFF" font-family="'MyriadPro-Regular'" font-size="36">Office 418</text>
	<rect x="739.708" y="416.124" fill="none" width="264.026" height="111.011"/>
	<text transform="matrix(1 0 0 1 739.708 446.2563)"><tspan x="0" y="0" fill="#FFFFFF" font-family="'MyriadPro-Regular'" font-size="36">Work Area</tspan><tspan x="0" y="43.2" fill="#FFFFFF" font-family="'MyriadPro-Regular'" font-size="36">415</tspan></text>
	<rect x="1023.352" y="416.124" fill="none" width="264.026" height="111.011"/>
	<text transform="matrix(1 0 0 1 1023.3516 446.2563)" fill="#FFFFFF" font-family="'MyriadPro-Regular'" font-size="36">Office 417</text>
	<rect x="1023.352" y="623.696" fill="none" width="264.026" height="111.011"/>
	<text transform="matrix(1 0 0 1 1023.3516 653.8286)" fill="#FFFFFF" font-family="'MyriadPro-Regular'" font-size="36">Office 416</text>
	<rect x="384.566" y="826.739" fill="none" width="264.026" height="111.011"/>
	<text transform="matrix(1 0 0 1 384.5664 856.8711)" fill="#FFFFFF" font-family="'MyriadPro-Regular'" font-size="36">ELEV</text>
	<rect x="1023.352" y="824.74" fill="none" width="264.026" height="111.011"/>
	<text transform="matrix(1 0 0 1 1023.3516 854.8721)" fill="#FFFFFF" font-family="'MyriadPro-Regular'" font-size="36">Stair B</text>
	<rect x="386.211" y="1050.496" fill="none" width="264.026" height="111.012"/>
	<text transform="matrix(1 0 0 1 386.2109 1080.6289)" fill="#FFFFFF" font-family="'MyriadPro-Regular'" font-size="36">Women’s</text>
	<rect x="384.566" y="1379.48" fill="none" width="264.026" height="111.012"/>
	<text transform="matrix(1 0 0 1 384.5664 1409.6133)" fill="#FFFFFF" font-family="'MyriadPro-Regular'" font-size="36">Men’s</text>
	<rect x="739.581" y="1102.376" fill="none" width="264.026" height="111.011"/>
	<text transform="matrix(1 0 0 1 739.5811 1132.5078)"><tspan x="0" y="0" fill="#FFFFFF" font-family="'MyriadPro-Regular'" font-size="36">Work Area</tspan><tspan x="0" y="43.2" fill="#FFFFFF" font-family="'MyriadPro-Regular'" font-size="36">410</tspan></text>
	<rect x="1078.362" y="1104.608" fill="none" width="264.026" height="111.011"/>
	<text transform="matrix(1 0 0 1 1078.3623 1134.7402)" fill="#FFFFFF" font-family="'MyriadPro-Regular'" font-size="36">Conf</text>
	<rect x="386.211" y="1737.311" fill="none" width="264.026" height="111.012"/>
	<text transform="matrix(1 0 0 1 386.2109 1767.4434)" fill="#FFFFFF" font-family="'MyriadPro-Regular'" font-size="36">Stair A</text>
	<rect x="571.444" y="1738.312" fill="none" width="264.027" height="111.011"/>
	<text transform="matrix(1 0 0 1 571.4438 1768.4434)"><tspan x="0" y="0" fill="#FFFFFF" font-family="'MyriadPro-Regular'" font-size="36">Office </tspan><tspan x="0" y="43.2" fill="#FFFFFF" font-family="'MyriadPro-Regular'" font-size="36">413</tspan></text>
	<rect x="739.581" y="1578.318" fill="none" width="264.026" height="111.011"/>
	<text transform="matrix(1 0 0 1 739.5811 1608.4512)"><tspan x="0" y="0" fill="#FFFFFF" font-family="'MyriadPro-Regular'" font-size="36">Work Area</tspan><tspan x="0" y="43.199" fill="#FFFFFF" font-family="'MyriadPro-Regular'" font-size="36">401</tspan></text>
	<rect x="1046.25" y="1428.923" fill="none" width="264.026" height="111.011"/>
	<text transform="matrix(1 0 0 1 1046.25 1459.0547)" fill="#FFFFFF" font-family="'MyriadPro-Regular'" font-size="36">Office 411</text>
	<rect x="1046.25" y="1615.055" fill="none" width="264.026" height="111.011"/>
	<text transform="matrix(1 0 0 1 1046.25 1645.1875)" fill="#FFFFFF" font-family="'MyriadPro-Regular'" font-size="36">Office 404</text>
	<rect x="1046.25" y="1822.602" fill="none" width="264.026" height="111.011"/>
	<text transform="matrix(1 0 0 1 1046.25 1852.7344)" fill="#FFFFFF" font-family="'MyriadPro-Regular'" font-size="36">Office 403</text>
</g>
</svg>
